<svg id="Layer_1" data-name="Layer 1" xmlns="http://www.w3.org/2000/svg" viewBox="0 0 481.59 376.92"><defs><style>.cls-1,.cls-2{fill:none;stroke:#fafae4;stroke-miterlimit:10;}.cls-1{stroke-width:4.92px;}.cls-2{stroke-width:4.71px;}.cls-3{fill:#9a7cb8;}.cls-4{fill:#bb96c5;}</style></defs><title>shape3</title><path class="cls-1" d="M1366.76-243.47v-71.29c0-4.55-7.37-8.25-16.47-8.25H906.57c-9.1,0-16.47,3.69-16.47,8.25V-24.64" transform="translate(-887.64 325.46)"/><path class="cls-1" d="M890.1-24.64V40.76c0,4.55,7.37,8.25,16.47,8.25h443.73c9.1,0,16.47-3.69,16.47-8.25V-243.47" transform="translate(-887.64 325.46)"/><path class="cls-2" d="M1357-238.75v-68.13c0-4.35-7.09-7.88-15.83-7.88H914.83c-8.74,0-15.83,3.53-15.83,7.88V-29.62" transform="translate(-887.64 325.46)"/><path class="cls-2" d="M899-29.62V32.88c0,4.35,7.09,7.88,15.83,7.88h426.35c8.74,0,15.83-3.53,15.83-7.88V-238.75" transform="translate(-887.64 325.46)"/><g id="_Group_" data-name="&lt;Group&gt;"><path class="cls-3" d="M1343.15-232.59V22.6c0,4.09-6.66,7.4-14.87,7.4H927.72c-8.21,0-14.87-3.31-14.87-7.4V-296.6c0-4.09,6.66-7.4,14.87-7.4h400.56c8.21,0,14.87,3.31,14.87,7.4v64Z" transform="translate(-887.64 325.46)"/></g><path class="cls-4" d="M928.15-303.7c-8.45,0-15.3,3.54-15.3,7.91V-9.34L1270.29-303.7H928.15Z" transform="translate(-887.64 325.46)"/></svg>